# xmcd
#
# Track frame offsets: 
#        150
#        17002
#        34070
#        55679
#        80580
#        106059
#        123823
#        179535
#        208378
#        224176
#
# Disc length: 3545 seconds
#
# Revision: 0
# Processed by: cddbd v1.5.1PL0 Copyright (c) Steve Scherf et al.
# Submitted via: ExactAudioCopy v0.95b3
#
DISCID=8d0dd70a
DTITLE=Damon Fowler Group - LIVE at Skipper's Smoke House
DYEAR=1900
DGENRE=Blues
TTITLE0=Jig Is Up
TTITLE1=TV Momma
TTITLE2=Ghetto Woman
TTITLE3=Rollin' and Tumblin'
TTITLE4=Sweet Marmalade
TTITLE5=Riverview Drive
TTITLE6=Pocket Full Of Blues
TTITLE7=Hot Tamales
TTITLE8=28 Degrees
TTITLE9=Broke Down Engine
EXTD=
EXTT0=
EXTT1=
EXTT2=
EXTT3=
EXTT4=
EXTT5=
EXTT6=
EXTT7=
EXTT8=
EXTT9=
PLAYORDER=
